<svg width="15" height="19" viewBox="0 0 15 19" fill="none" xmlns="http://www.w3.org/2000/svg">
<path id="Vector" d="M3.74999 17.75L3.74999 14.6562C4.3953 14.491 4.96727 14.1157 5.37572 13.5895C5.78417 13.0633 6.00587 12.4161 6.00587 11.75C6.00587 11.0839 5.78417 10.4367 5.37572 9.91048C4.96727 9.38428 4.3953 9.00898 3.74999 8.84375L3.74999 1.25C3.74999 1.05109 3.67097 0.860321 3.53032 0.719669C3.38967 0.579018 3.1989 0.5 2.99999 0.5C2.80108 0.5 2.61032 0.579018 2.46966 0.719669C2.32901 0.860321 2.24999 1.05109 2.24999 1.25L2.24999 8.84375C1.60468 9.00898 1.03271 9.38428 0.624263 9.91048C0.215812 10.4367 -0.00588989 11.0839 -0.00588989 11.75C-0.00588989 12.4161 0.215812 13.0633 0.624263 13.5895C1.03271 14.1157 1.60468 14.491 2.24999 14.6562L2.24999 17.75C2.24999 17.9489 2.32901 18.1397 2.46966 18.2803C2.61032 18.421 2.80108 18.5 2.99999 18.5C3.1989 18.5 3.38967 18.421 3.53032 18.2803C3.67097 18.1397 3.74999 17.9489 3.74999 17.75ZM1.49999 11.75C1.49999 11.4533 1.58797 11.1633 1.75279 10.9166C1.91761 10.67 2.15188 10.4777 2.42597 10.3642C2.70006 10.2506 3.00166 10.2209 3.29263 10.2788C3.5836 10.3367 3.85087 10.4796 4.06065 10.6893C4.27043 10.8991 4.41329 11.1664 4.47117 11.4574C4.52905 11.7483 4.49934 12.0499 4.38581 12.324C4.27228 12.5981 4.08002 12.8324 3.83335 12.9972C3.58667 13.162 3.29666 13.25 2.99999 13.25C2.60217 13.25 2.22064 13.092 1.93933 12.8107C1.65803 12.5294 1.49999 12.1478 1.49999 11.75ZM11.25 1.25V2.84375C10.6047 3.00898 10.0327 3.38428 9.62426 3.91048C9.21581 4.43669 8.99411 5.08387 8.99411 5.75C8.99411 6.41613 9.21581 7.06331 9.62426 7.58952C10.0327 8.11572 10.6047 8.49102 11.25 8.65625V17.75C11.25 17.9489 11.329 18.1397 11.4697 18.2803C11.6103 18.421 11.8011 18.5 12 18.5C12.1989 18.5 12.3897 18.421 12.5303 18.2803C12.671 18.1397 12.75 17.9489 12.75 17.75V8.65625C13.3953 8.49102 13.9673 8.11572 14.3757 7.58952C14.7842 7.06331 15.0059 6.41613 15.0059 5.75C15.0059 5.08387 14.7842 4.43669 14.3757 3.91048C13.9673 3.38428 13.3953 3.00898 12.75 2.84375V1.25C12.75 1.05109 12.671 0.860321 12.5303 0.719669C12.3897 0.579018 12.1989 0.5 12 0.5C11.8011 0.5 11.6103 0.579018 11.4697 0.719669C11.329 0.860321 11.25 1.05109 11.25 1.25ZM13.5 5.75C13.5 6.04667 13.412 6.33668 13.2472 6.58336C13.0824 6.83003 12.8481 7.02229 12.574 7.13582C12.2999 7.24935 11.9983 7.27906 11.7074 7.22118C11.4164 7.1633 11.1491 7.02044 10.9393 6.81066C10.7296 6.60088 10.5867 6.33361 10.5288 6.04263C10.4709 5.75166 10.5006 5.45006 10.6142 5.17597C10.7277 4.90189 10.92 4.66762 11.1666 4.5028C11.4133 4.33797 11.7033 4.25 12 4.25C12.3978 4.25 12.7793 4.40804 13.0607 4.68934C13.342 4.97064 13.5 5.35218 13.5 5.75Z" fill="white"/>
</svg>
