<svg width="20" height="21" viewBox="0 0 20 21" fill="none" xmlns="http://www.w3.org/2000/svg">
<path id="Vector" d="M19.3013 18.9796L14.6073 14.2865C15.9678 12.6531 16.6462 10.558 16.5014 8.43716C16.3566 6.3163 15.3998 4.3329 13.8299 2.89957C12.26 1.46624 10.1979 0.693337 8.07263 0.741637C5.94738 0.789937 3.92256 1.65572 2.41939 3.15889C0.916222 4.66206 0.0504346 6.68688 0.0021347 8.81214C-0.0461652 10.9374 0.726741 12.9995 2.16007 14.5694C3.5934 16.1393 5.5768 17.0961 7.69766 17.2409C9.81853 17.3857 11.9136 16.7073 13.547 15.3468L18.2401 20.0409C18.3098 20.1105 18.3925 20.1658 18.4836 20.2035C18.5746 20.2412 18.6722 20.2606 18.7707 20.2606C18.8693 20.2606 18.9669 20.2412 19.0579 20.2035C19.1489 20.1658 19.2317 20.1105 19.3013 20.0409C19.371 19.9712 19.4263 19.8884 19.464 19.7974C19.5017 19.7064 19.5211 19.6088 19.5211 19.5102C19.5211 19.4117 19.5017 19.3141 19.464 19.2231C19.4263 19.132 19.371 19.0493 19.3013 18.9796ZM1.52072 9.01022C1.52072 7.6752 1.9166 6.37016 2.6583 5.26012C3.4 4.15009 4.45421 3.28493 5.68761 2.77404C6.92101 2.26315 8.27821 2.12947 9.58758 2.38992C10.897 2.65037 12.0997 3.29325 13.0437 4.23725C13.9877 5.18126 14.6306 6.38399 14.891 7.69336C15.1515 9.00274 15.0178 10.3599 14.5069 11.5933C13.996 12.8267 13.1309 13.8809 12.0208 14.6226C10.9108 15.3643 9.60575 15.7602 8.27072 15.7602C6.48112 15.7582 4.76538 15.0464 3.49994 13.781C2.2345 12.5156 1.52271 10.7998 1.52072 9.01022Z" fill="#5CB338"/>
</svg>
