<svg width="25" height="25" viewBox="0 0 25 25" fill="none" xmlns="http://www.w3.org/2000/svg">
<g id="Trash">
<path id="Vector" d="M20.75 5H17V4.25C17 3.65326 16.7629 3.08097 16.341 2.65901C15.919 2.23705 15.3467 2 14.75 2H10.25C9.65326 2 9.08097 2.23705 8.65901 2.65901C8.23705 3.08097 8 3.65326 8 4.25V5H4.25C4.05109 5 3.86032 5.07902 3.71967 5.21967C3.57902 5.36032 3.5 5.55109 3.5 5.75C3.5 5.94891 3.57902 6.13968 3.71967 6.28033C3.86032 6.42098 4.05109 6.5 4.25 6.5H5V20C5 20.3978 5.15804 20.7794 5.43934 21.0607C5.72064 21.342 6.10218 21.5 6.5 21.5H18.5C18.8978 21.5 19.2794 21.342 19.5607 21.0607C19.842 20.7794 20 20.3978 20 20V6.5H20.75C20.9489 6.5 21.1397 6.42098 21.2803 6.28033C21.421 6.13968 21.5 5.94891 21.5 5.75C21.5 5.55109 21.421 5.36032 21.2803 5.21967C21.1397 5.07902 20.9489 5 20.75 5ZM9.5 4.25C9.5 4.05109 9.57902 3.86032 9.71967 3.71967C9.86032 3.57902 10.0511 3.5 10.25 3.5H14.75C14.9489 3.5 15.1397 3.57902 15.2803 3.71967C15.421 3.86032 15.5 4.05109 15.5 4.25V5H9.5V4.25ZM18.5 20H6.5V6.5H18.5V20ZM11 10.25V16.25C11 16.4489 10.921 16.6397 10.7803 16.7803C10.6397 16.921 10.4489 17 10.25 17C10.0511 17 9.86032 16.921 9.71967 16.7803C9.57902 16.6397 9.5 16.4489 9.5 16.25V10.25C9.5 10.0511 9.57902 9.86032 9.71967 9.71967C9.86032 9.57902 10.0511 9.5 10.25 9.5C10.4489 9.5 10.6397 9.57902 10.7803 9.71967C10.921 9.86032 11 10.0511 11 10.25ZM15.5 10.25V16.25C15.5 16.4489 15.421 16.6397 15.2803 16.7803C15.1397 16.921 14.9489 17 14.75 17C14.5511 17 14.3603 16.921 14.2197 16.7803C14.079 16.6397 14 16.4489 14 16.25V10.25C14 10.0511 14.079 9.86032 14.2197 9.71967C14.3603 9.57902 14.5511 9.5 14.75 9.5C14.9489 9.5 15.1397 9.57902 15.2803 9.71967C15.421 9.86032 15.5 10.0511 15.5 10.25Z" fill="white"/>
</g>
</svg>
